STARTFONT 2.1
FONT -FontForge-Permanent Marker-Book-R-Normal--14-140-72-72-P-81-ISO10646-1
SIZE 14 72 72
FONTBOUNDINGBOX 21 19 -4 -4
COMMENT "Generated by fontforge, http://fontforge.sourceforge.net"
COMMENT "Copyright (c) 2010 by Font Diner, Inc. All rights reserved."
STARTPROPERTIES 39
FOUNDRY "FontForge"
FAMILY_NAME "Permanent Marker"
WEIGHT_NAME "Book"
SLANT "R"
SETWIDTH_NAME "Normal"
ADD_STYLE_NAME ""
PIXEL_SIZE 14
POINT_SIZE 140
RESOLUTION_X 72
RESOLUTION_Y 72
SPACING "P"
AVERAGE_WIDTH 81
CHARSET_REGISTRY "ISO10646"
CHARSET_ENCODING "1"
FONTNAME_REGISTRY ""
CHARSET_COLLECTIONS "ISO10646-1"
FONT_NAME "PermanentMarker-Regular"
FACE_NAME "Permanent Marker Regular"
COPYRIGHT "Copyright (c) 2010 by Font Diner, Inc. All rights reserved."
FONT_VERSION "1.001"
FONT_ASCENT 11
FONT_DESCENT 3
UNDERLINE_POSITION -1
UNDERLINE_THICKNESS 1
X_HEIGHT 7
CAP_HEIGHT 9
RAW_ASCENT 799
RAW_DESCENT 200
NORM_SPACE 5
RELATIVE_WEIGHT 40
RELATIVE_SETWIDTH 50
SUPERSCRIPT_X 0
SUPERSCRIPT_Y 6
SUPERSCRIPT_SIZE 8
SUBSCRIPT_X 0
SUBSCRIPT_Y 1
SUBSCRIPT_SIZE 8
AVG_LOWERCASE_WIDTH 78
AVG_UPPERCASE_WIDTH 95
ENDPROPERTIES
CHARS 230
STARTCHAR space
ENCODING 32
SWIDTH 370 0
DWIDTH 5 0
BBX 1 1 0 0
BITMAP
00
ENDCHAR
STARTCHAR exclam
ENCODING 33
SWIDTH 260 0
DWIDTH 4 0
BBX 4 10 0 0
BITMAP
30
30
30
60
60
60
60
00
C0
C0
ENDCHAR
STARTCHAR quotedbl
ENCODING 34
SWIDTH 492 0
DWIDTH 7 0
BBX 6 6 1 4
BITMAP
6C
6C
EC
D8
D8
D8
ENDCHAR
STARTCHAR numbersign
ENCODING 35
SWIDTH 703 0
DWIDTH 10 0
BBX 10 10 0 0
BITMAP
0900
0D80
1980
7FC0
7B00
3300
FF80
7600
6E00
6C00
ENDCHAR
STARTCHAR dollar
ENCODING 36
SWIDTH 493 0
DWIDTH 7 0
BBX 8 10 0 0
BITMAP
08
0C
3F
70
F8
08
0C
78
70
30
ENDCHAR
STARTCHAR percent
ENCODING 37
SWIDTH 643 0
DWIDTH 9 0
BBX 8 10 1 0
BITMAP
21
63
B6
FC
18
34
6E
DE
DE
8C
ENDCHAR
STARTCHAR ampersand
ENCODING 38
SWIDTH 599 0
DWIDTH 8 0
BBX 8 7 0 1
BITMAP
08
0C
7C
FF
FF
18
18
ENDCHAR
STARTCHAR quotesingle
ENCODING 39
SWIDTH 265 0
DWIDTH 4 0
BBX 3 6 1 4
BITMAP
60
60
E0
C0
C0
C0
ENDCHAR
STARTCHAR parenleft
ENCODING 40
SWIDTH 361 0
DWIDTH 5 0
BBX 7 15 0 -3
BITMAP
06
0E
1C
38
30
70
60
60
60
E0
E0
60
60
20
20
ENDCHAR
STARTCHAR parenright
ENCODING 41
SWIDTH 361 0
DWIDTH 5 0
BBX 7 15 -2 -3
BITMAP
08
0C
0C
0E
0C
0C
0C
0C
0C
1C
38
70
60
C0
40
ENDCHAR
STARTCHAR asterisk
ENCODING 42
SWIDTH 673 0
DWIDTH 9 0
BBX 9 7 1 3
BITMAP
3600
3E00
3F00
FF80
3C00
3600
6200
ENDCHAR
STARTCHAR plus
ENCODING 43
SWIDTH 579 0
DWIDTH 8 0
BBX 7 7 0 0
BITMAP
18
18
7E
FE
38
30
30
ENDCHAR
STARTCHAR comma
ENCODING 44
SWIDTH 204 0
DWIDTH 3 0
BBX 4 4 -2 -2
BITMAP
20
70
60
E0
ENDCHAR
STARTCHAR hyphen
ENCODING 45
SWIDTH 609 0
DWIDTH 9 0
BBX 8 2 0 3
BITMAP
7E
FF
ENDCHAR
STARTCHAR period
ENCODING 46
SWIDTH 228 0
DWIDTH 3 0
BBX 2 2 0 0
BITMAP
C0
C0
ENDCHAR
STARTCHAR slash
ENCODING 47
SWIDTH 401 0
DWIDTH 6 0
BBX 7 10 0 0
BITMAP
06
06
0C
18
30
30
60
C0
C0
80
ENDCHAR
STARTCHAR zero
ENCODING 48
SWIDTH 686 0
DWIDTH 10 0
BBX 9 11 0 0
BITMAP
0200
0600
1F00
1F00
3B00
7300
6180
E180
C780
FF00
7E00
ENDCHAR
STARTCHAR one
ENCODING 49
SWIDTH 322 0
DWIDTH 5 0
BBX 4 10 0 0
BITMAP
60
70
30
30
70
70
60
60
E0
40
ENDCHAR
STARTCHAR two
ENCODING 50
SWIDTH 650 0
DWIDTH 9 0
BBX 9 10 1 0
BITMAP
FC00
FE00
C600
1E00
3C00
7800
F000
FF80
FF80
F800
ENDCHAR
STARTCHAR three
ENCODING 51
SWIDTH 561 0
DWIDTH 8 0
BBX 8 10 0 0
BITMAP
7E
FF
FE
3C
3C
3E
06
5E
FE
F8
ENDCHAR
STARTCHAR four
ENCODING 52
SWIDTH 582 0
DWIDTH 8 0
BBX 7 11 1 0
BITMAP
08
08
8C
CC
CE
FE
7C
18
30
30
18
ENDCHAR
STARTCHAR five
ENCODING 53
SWIDTH 580 0
DWIDTH 8 0
BBX 8 10 1 0
BITMAP
30
7F
FF
F0
F0
78
1C
FC
FC
78
ENDCHAR
STARTCHAR six
ENCODING 54
SWIDTH 500 0
DWIDTH 7 0
BBX 7 10 0 0
BITMAP
18
3C
30
60
60
FC
FE
FE
FC
F0
ENDCHAR
STARTCHAR seven
ENCODING 55
SWIDTH 576 0
DWIDTH 8 0
BBX 9 10 0 0
BITMAP
FC00
FC00
9E00
0600
0700
7F80
7C00
1800
3800
3000
ENDCHAR
STARTCHAR eight
ENCODING 56
SWIDTH 537 0
DWIDTH 8 0
BBX 7 10 1 0
BITMAP
76
FE
DE
DE
FC
70
F0
D8
F8
70
ENDCHAR
STARTCHAR nine
ENCODING 57
SWIDTH 529 0
DWIDTH 7 0
BBX 7 10 1 0
BITMAP
38
7C
EC
FE
FC
08
18
18
18
18
ENDCHAR
STARTCHAR colon
ENCODING 58
SWIDTH 241 0
DWIDTH 3 0
BBX 3 6 0 0
BITMAP
60
E0
40
00
C0
C0
ENDCHAR
STARTCHAR semicolon
ENCODING 59
SWIDTH 245 0
DWIDTH 3 0
BBX 4 8 -1 -2
BITMAP
30
70
20
00
60
60
E0
C0
ENDCHAR
STARTCHAR less
ENCODING 60
SWIDTH 625 0
DWIDTH 9 0
BBX 9 7 0 0
BITMAP
0100
0780
3E00
F000
7C00
1E00
0200
ENDCHAR
STARTCHAR equal
ENCODING 61
SWIDTH 586 0
DWIDTH 8 0
BBX 8 5 0 1
BITMAP
7F
7C
00
FE
C0
ENDCHAR
STARTCHAR greater
ENCODING 62
SWIDTH 634 0
DWIDTH 9 0
BBX 9 7 -1 0
BITMAP
2000
3C00
1F00
0780
3E00
F000
4000
ENDCHAR
STARTCHAR question
ENCODING 63
SWIDTH 556 0
DWIDTH 8 0
BBX 8 10 1 0
BITMAP
7E
FF
47
0E
3C
70
60
00
C0
C0
ENDCHAR
STARTCHAR at
ENCODING 64
SWIDTH 732 0
DWIDTH 10 0
BBX 10 10 0 0
BITMAP
0700
0F80
1880
33C0
6EC0
DAC0
DF80
9F00
E100
3F80
ENDCHAR
STARTCHAR A
ENCODING 65
SWIDTH 702 0
DWIDTH 10 0
BBX 10 10 0 0
BITMAP
0600
0E00
1E00
3F00
3300
73C0
7F80
FF80
C780
C300
ENDCHAR
STARTCHAR B
ENCODING 66
SWIDTH 686 0
DWIDTH 10 0
BBX 9 10 0 0
BITMAP
7F00
FF80
E780
3F00
3E00
3F00
7180
6780
7F00
7E00
ENDCHAR
STARTCHAR C
ENCODING 67
SWIDTH 611 0
DWIDTH 9 0
BBX 8 10 0 0
BITMAP
07
0F
3F
78
F0
E0
C0
F0
7F
3E
ENDCHAR
STARTCHAR D
ENCODING 68
SWIDTH 588 0
DWIDTH 8 0
BBX 8 10 0 0
BITMAP
60
78
7C
66
63
63
6F
FE
F8
E0
ENDCHAR
STARTCHAR E
ENCODING 69
SWIDTH 626 0
DWIDTH 9 0
BBX 9 10 0 0
BITMAP
0F80
7F80
7C00
7000
7F00
7E00
E000
C300
FF00
7E00
ENDCHAR
STARTCHAR F
ENCODING 70
SWIDTH 575 0
DWIDTH 8 0
BBX 10 10 0 0
BITMAP
0F80
7FC0
7800
3000
3000
FF00
FE00
6000
C000
4000
ENDCHAR
STARTCHAR G
ENCODING 71
SWIDTH 789 0
DWIDTH 11 0
BBX 12 10 0 0
BITMAP
0300
0F80
1F00
3C00
7980
E1E0
E1F0
CFE0
FFC0
7C00
ENDCHAR
STARTCHAR H
ENCODING 72
SWIDTH 695 0
DWIDTH 10 0
BBX 9 10 0 0
BITMAP
2180
6180
7180
7180
6180
6F80
7F80
FB00
E300
C300
ENDCHAR
STARTCHAR I
ENCODING 73
SWIDTH 515 0
DWIDTH 7 0
BBX 10 10 -1 0
BITMAP
3FC0
1FC0
0600
0600
0C00
0C00
0C00
1800
FE00
7E00
ENDCHAR
STARTCHAR J
ENCODING 74
SWIDTH 668 0
DWIDTH 9 0
BBX 11 10 0 0
BITMAP
3FC0
7FE0
7300
0700
0700
0600
0600
CE00
FC00
F800
ENDCHAR
STARTCHAR K
ENCODING 75
SWIDTH 776 0
DWIDTH 11 0
BBX 11 10 0 0
BITMAP
1840
39E0
3BC0
7780
7E00
7C00
7E00
F7E0
E3E0
4000
ENDCHAR
STARTCHAR L
ENCODING 76
SWIDTH 632 0
DWIDTH 9 0
BBX 9 10 0 0
BITMAP
3000
3800
3000
7000
7000
6000
E000
FE00
FF00
7F80
ENDCHAR
STARTCHAR M
ENCODING 77
SWIDTH 973 0
DWIDTH 14 0
BBX 14 10 0 0
BITMAP
1C10
1C38
3C7C
3CF8
7FF8
7FB8
E738
E038
C030
C030
ENDCHAR
STARTCHAR N
ENCODING 78
SWIDTH 684 0
DWIDTH 10 0
BBX 10 10 0 0
BITMAP
1880
19C0
3DC0
3980
7980
7B80
FF80
EF00
CF00
4600
ENDCHAR
STARTCHAR O
ENCODING 79
SWIDTH 744 0
DWIDTH 10 0
BBX 10 10 0 0
BITMAP
0700
0F00
1F00
3D80
7180
60C0
E1C0
C7C0
FF80
7E00
ENDCHAR
STARTCHAR P
ENCODING 80
SWIDTH 639 0
DWIDTH 9 0
BBX 9 10 0 0
BITMAP
1F00
1F80
3B80
7380
7F80
FF00
7800
6000
6000
6000
ENDCHAR
STARTCHAR Q
ENCODING 81
SWIDTH 744 0
DWIDTH 10 0
BBX 10 11 0 -1
BITMAP
0700
0780
1F80
3CC0
70C0
E6C0
E7C0
CF80
FF80
7D80
0080
ENDCHAR
STARTCHAR R
ENCODING 82
SWIDTH 646 0
DWIDTH 9 0
BBX 9 10 0 0
BITMAP
0C00
1E00
7F00
7300
7F00
7E00
7800
F800
DF80
C780
ENDCHAR
STARTCHAR S
ENCODING 83
SWIDTH 576 0
DWIDTH 8 0
BBX 10 10 0 0
BITMAP
0F80
7FC0
F800
F800
7C00
0600
0600
1E00
7C00
7000
ENDCHAR
STARTCHAR T
ENCODING 84
SWIDTH 607 0
DWIDTH 9 0
BBX 11 10 0 0
BITMAP
3FE0
FFE0
FC00
1C00
1800
1800
3800
3000
3000
3800
ENDCHAR
STARTCHAR U
ENCODING 85
SWIDTH 695 0
DWIDTH 10 0
BBX 9 10 1 0
BITMAP
0100
8180
C180
C380
C380
C700
CF00
FE00
FC00
7000
ENDCHAR
STARTCHAR V
ENCODING 86
SWIDTH 583 0
DWIDTH 8 0
BBX 8 10 1 0
BITMAP
83
C7
C7
CE
FC
F8
F8
70
60
60
ENDCHAR
STARTCHAR W
ENCODING 87
SWIDTH 994 0
DWIDTH 14 0
BBX 15 10 0 0
BITMAP
3004
318C
718E
739C
679C
67B8
EFB8
FFF0
7CF0
30E0
ENDCHAR
STARTCHAR X
ENCODING 88
SWIDTH 623 0
DWIDTH 9 0
BBX 10 10 0 0
BITMAP
6080
73C0
7F80
3F00
1C00
3C00
7E00
E700
C700
C200
ENDCHAR
STARTCHAR Y
ENCODING 89
SWIDTH 493 0
DWIDTH 7 0
BBX 7 10 1 0
BITMAP
C6
CE
DC
F8
78
70
70
E0
C0
C0
ENDCHAR
STARTCHAR Z
ENCODING 90
SWIDTH 664 0
DWIDTH 9 0
BBX 10 11 0 -1
BITMAP
3F80
3FC0
0380
0700
1E00
3C00
F000
E780
FF80
FE00
2000
ENDCHAR
STARTCHAR bracketleft
ENCODING 91
SWIDTH 387 0
DWIDTH 5 0
BBX 10 15 0 -2
BITMAP
0780
1FC0
1C00
1800
3000
3000
3000
7000
6000
6000
6000
E000
C000
FC00
FC00
ENDCHAR
STARTCHAR backslash
ENCODING 92
SWIDTH 352 0
DWIDTH 5 0
BBX 3 10 1 0
BITMAP
80
C0
C0
C0
40
40
60
60
60
60
ENDCHAR
STARTCHAR bracketright
ENCODING 93
SWIDTH 403 0
DWIDTH 6 0
BBX 10 15 -4 -2
BITMAP
0780
1FC0
08C0
0180
0180
0180
0180
0300
0300
0300
0700
0600
0600
FE00
FC00
ENDCHAR
STARTCHAR asciicircum
ENCODING 94
SWIDTH 518 0
DWIDTH 7 0
BBX 6 8 0 2
BITMAP
0C
1C
1C
3C
7C
E4
C4
80
ENDCHAR
STARTCHAR underscore
ENCODING 95
SWIDTH 708 0
DWIDTH 10 0
BBX 11 2 -1 0
BITMAP
7F80
FFE0
ENDCHAR
STARTCHAR grave
ENCODING 96
SWIDTH 754 0
DWIDTH 11 0
BBX 4 4 4 6
BITMAP
C0
E0
30
10
ENDCHAR
STARTCHAR a
ENCODING 97
SWIDTH 581 0
DWIDTH 8 0
BBX 8 8 0 0
BITMAP
0C
3C
3C
76
7F
DE
CE
C6
ENDCHAR
STARTCHAR b
ENCODING 98
SWIDTH 573 0
DWIDTH 8 0
BBX 8 9 0 0
BITMAP
08
FE
E6
7E
3C
76
67
7E
FC
ENDCHAR
STARTCHAR c
ENCODING 99
SWIDTH 513 0
DWIDTH 7 0
BBX 7 8 0 0
BITMAP
0E
3E
78
E0
C0
C0
7C
3E
ENDCHAR
STARTCHAR d
ENCODING 100
SWIDTH 497 0
DWIDTH 7 0
BBX 7 8 0 0
BITMAP
60
78
4C
46
46
DC
F8
E0
ENDCHAR
STARTCHAR e
ENCODING 101
SWIDTH 521 0
DWIDTH 7 0
BBX 8 8 0 0
BITMAP
3F
7E
60
7C
7C
C0
FE
7C
ENDCHAR
STARTCHAR f
ENCODING 102
SWIDTH 455 0
DWIDTH 6 0
BBX 8 8 0 0
BITMAP
3F
78
70
60
FC
F0
C0
C0
ENDCHAR
STARTCHAR g
ENCODING 103
SWIDTH 652 0
DWIDTH 9 0
BBX 10 8 0 0
BITMAP
0E00
1E00
3800
7300
E380
C3C0
FF80
7C00
ENDCHAR
STARTCHAR h
ENCODING 104
SWIDTH 582 0
DWIDTH 8 0
BBX 8 9 0 0
BITMAP
02
42
63
63
63
7F
FE
E6
C6
ENDCHAR
STARTCHAR i
ENCODING 105
SWIDTH 320 0
DWIDTH 4 0
BBX 3 8 1 0
BITMAP
40
60
E0
C0
C0
C0
C0
C0
ENDCHAR
STARTCHAR j
ENCODING 106
SWIDTH 534 0
DWIDTH 7 0
BBX 9 8 0 0
BITMAP
7F80
7F80
0400
0C00
0C00
0C00
F800
F000
ENDCHAR
STARTCHAR k
ENCODING 107
SWIDTH 645 0
DWIDTH 9 0
BBX 9 8 0 0
BITMAP
3100
3780
7F00
7C00
7800
FF80
E780
4100
ENDCHAR
STARTCHAR l
ENCODING 108
SWIDTH 533 0
DWIDTH 7 0
BBX 7 8 0 0
BITMAP
30
30
60
60
E0
C0
FE
7E
ENDCHAR
STARTCHAR m
ENCODING 109
SWIDTH 814 0
DWIDTH 11 0
BBX 11 9 0 0
BITMAP
1000
1860
38E0
39E0
7FE0
7F60
E0E0
C0C0
C040
ENDCHAR
STARTCHAR n
ENCODING 110
SWIDTH 564 0
DWIDTH 8 0
BBX 8 8 0 0
BITMAP
33
3B
73
73
F6
FE
DE
CC
ENDCHAR
STARTCHAR o
ENCODING 111
SWIDTH 628 0
DWIDTH 9 0
BBX 8 9 0 0
BITMAP
04
0E
1E
3E
63
E3
C3
FF
7C
ENDCHAR
STARTCHAR p
ENCODING 112
SWIDTH 524 0
DWIDTH 7 0
BBX 8 8 0 0
BITMAP
3E
3F
63
7F
FC
60
60
C0
ENDCHAR
STARTCHAR q
ENCODING 113
SWIDTH 625 0
DWIDTH 9 0
BBX 8 9 0 -1
BITMAP
0E
1E
3B
71
EF
C7
FE
7B
03
ENDCHAR
STARTCHAR r
ENCODING 114
SWIDTH 541 0
DWIDTH 8 0
BBX 8 8 0 0
BITMAP
1C
3C
76
7E
7C
F0
FC
DF
ENDCHAR
STARTCHAR s
ENCODING 115
SWIDTH 463 0
DWIDTH 7 0
BBX 8 8 0 0
BITMAP
3F
FF
F0
78
0C
0C
78
70
ENDCHAR
STARTCHAR t
ENCODING 116
SWIDTH 479 0
DWIDTH 7 0
BBX 9 8 0 0
BITMAP
FF80
FE00
1800
3800
3000
3000
2000
3000
ENDCHAR
STARTCHAR u
ENCODING 117
SWIDTH 584 0
DWIDTH 8 0
BBX 8 8 1 0
BITMAP
02
C3
C6
C6
CE
FC
F8
70
ENDCHAR
STARTCHAR v
ENCODING 118
SWIDTH 485 0
DWIDTH 7 0
BBX 7 8 1 0
BITMAP
86
CE
DC
D8
F0
F0
60
60
ENDCHAR
STARTCHAR w
ENCODING 119
SWIDTH 825 0
DWIDTH 12 0
BBX 12 8 0 0
BITMAP
2230
7330
6730
6760
6E60
DFC0
7BC0
7180
ENDCHAR
STARTCHAR x
ENCODING 120
SWIDTH 506 0
DWIDTH 7 0
BBX 8 8 0 0
BITMAP
63
77
3E
38
78
EC
CC
86
ENDCHAR
STARTCHAR y
ENCODING 121
SWIDTH 400 0
DWIDTH 6 0
BBX 6 9 1 0
BITMAP
04
CC
D8
F8
F0
60
E0
C0
C0
ENDCHAR
STARTCHAR z
ENCODING 122
SWIDTH 547 0
DWIDTH 8 0
BBX 8 9 0 -1
BITMAP
3F
3F
0E
3C
78
E2
FE
FC
40
ENDCHAR
STARTCHAR braceleft
ENCODING 123
SWIDTH 448 0
DWIDTH 6 0
BBX 11 15 0 -2
BITMAP
03C0
0FE0
0E00
0C00
0C00
1800
7800
E000
7800
3000
3000
3000
6000
7E00
7E00
ENDCHAR
STARTCHAR bar
ENCODING 124
SWIDTH 332 0
DWIDTH 5 0
BBX 5 10 0 0
BITMAP
10
18
30
30
30
60
60
60
C0
C0
ENDCHAR
STARTCHAR braceright
ENCODING 125
SWIDTH 481 0
DWIDTH 7 0
BBX 10 15 -4 -2
BITMAP
0780
1FC0
0980
0180
0180
0180
0380
01C0
01C0
0380
0600
0600
0600
FE00
FC00
ENDCHAR
STARTCHAR asciitilde
ENCODING 126
SWIDTH 581 0
DWIDTH 8 0
BBX 8 3 0 3
BITMAP
31
7E
DE
ENDCHAR
STARTCHAR uni00A0
ENCODING 160
SWIDTH 370 0
DWIDTH 5 0
BBX 1 1 0 0
BITMAP
00
ENDCHAR
STARTCHAR exclamdown
ENCODING 161
SWIDTH 260 0
DWIDTH 4 0
BBX 4 10 0 0
BITMAP
60
70
00
60
60
E0
C0
C0
C0
C0
ENDCHAR
STARTCHAR cent
ENCODING 162
SWIDTH 488 0
DWIDTH 7 0
BBX 7 10 0 0
BITMAP
08
0C
1E
78
E0
C0
C0
7C
30
60
ENDCHAR
STARTCHAR sterling
ENCODING 163
SWIDTH 586 0
DWIDTH 8 0
BBX 8 8 0 1
BITMAP
0F
1F
30
FE
FC
20
FE
FE
ENDCHAR
STARTCHAR currency
ENCODING 164
SWIDTH 509 0
DWIDTH 7 0
BBX 7 8 0 0
BITMAP
40
7E
7C
6C
FC
FC
CC
88
ENDCHAR
STARTCHAR yen
ENCODING 165
SWIDTH 563 0
DWIDTH 8 0
BBX 8 9 0 0
BITMAP
22
37
3E
3C
FE
FE
30
30
60
ENDCHAR
STARTCHAR brokenbar
ENCODING 166
SWIDTH 301 0
DWIDTH 4 0
BBX 4 10 0 0
BITMAP
10
10
30
30
20
00
60
C0
C0
C0
ENDCHAR
STARTCHAR section
ENCODING 167
SWIDTH 630 0
DWIDTH 9 0
BBX 9 12 0 -1
BITMAP
1F00
7F80
7000
7C00
3E00
7F00
E700
7F00
3E00
0700
FF00
FC00
ENDCHAR
STARTCHAR dieresis
ENCODING 168
SWIDTH 754 0
DWIDTH 11 0
BBX 6 2 3 8
BITMAP
EC
CC
ENDCHAR
STARTCHAR copyright
ENCODING 169
SWIDTH 614 0
DWIDTH 9 0
BBX 9 9 0 1
BITMAP
1E00
3300
6F00
5980
E180
D900
4F00
7E00
0800
ENDCHAR
STARTCHAR ordfeminine
ENCODING 170
SWIDTH 454 0
DWIDTH 6 0
BBX 6 6 0 3
BITMAP
18
38
78
7C
FC
C8
ENDCHAR
STARTCHAR guillemotleft
ENCODING 171
SWIDTH 566 0
DWIDTH 8 0
BBX 8 6 0 0
BITMAP
12
37
FC
D8
6C
26
ENDCHAR
STARTCHAR logicalnot
ENCODING 172
SWIDTH 698 0
DWIDTH 10 0
BBX 9 5 0 0
BITMAP
7F00
FF80
0180
0300
0300
ENDCHAR
STARTCHAR sfthyphen
ENCODING 173
SWIDTH 608 0
DWIDTH 9 0
BBX 8 2 0 3
BITMAP
7E
FF
ENDCHAR
STARTCHAR registered
ENCODING 174
SWIDTH 624 0
DWIDTH 9 0
BBX 9 9 0 1
BITMAP
1E00
3100
6D00
5B80
DD80
D900
5700
3E00
0800
ENDCHAR
STARTCHAR macron
ENCODING 175
SWIDTH 754 0
DWIDTH 11 0
BBX 5 2 4 8
BITMAP
F8
B0
ENDCHAR
STARTCHAR degree
ENCODING 176
SWIDTH 284 0
DWIDTH 4 0
BBX 4 4 1 7
BITMAP
30
70
F0
F0
ENDCHAR
STARTCHAR plusminus
ENCODING 177
SWIDTH 559 0
DWIDTH 8 0
BBX 8 10 0 0
BITMAP
08
0C
1C
7E
7F
18
18
10
FC
FE
ENDCHAR
STARTCHAR twosuperior
ENCODING 178
SWIDTH 386 0
DWIDTH 5 0
BBX 5 5 1 5
BITMAP
F0
F0
70
F8
F8
ENDCHAR
STARTCHAR threesuperior
ENCODING 179
SWIDTH 366 0
DWIDTH 5 0
BBX 5 5 1 5
BITMAP
F0
F0
70
78
70
ENDCHAR
STARTCHAR acute
ENCODING 180
SWIDTH 754 0
DWIDTH 11 0
BBX 4 4 4 6
BITMAP
30
70
E0
80
ENDCHAR
STARTCHAR mu
ENCODING 181
SWIDTH 569 0
DWIDTH 8 0
BBX 8 9 0 -1
BITMAP
02
43
63
63
66
EE
FC
F0
C0
ENDCHAR
STARTCHAR paragraph
ENCODING 182
SWIDTH 729 0
DWIDTH 10 0
BBX 10 11 1 0
BITMAP
0100
3FC0
FFC0
ED80
CF00
FF00
3F00
1F80
1E00
1F00
3300
ENDCHAR
STARTCHAR periodcentered
ENCODING 183
SWIDTH 226 0
DWIDTH 3 0
BBX 2 2 1 4
BITMAP
C0
C0
ENDCHAR
STARTCHAR cedilla
ENCODING 184
SWIDTH 754 0
DWIDTH 11 0
BBX 5 5 4 -4
BITMAP
60
40
70
18
F0
ENDCHAR
STARTCHAR onesuperior
ENCODING 185
SWIDTH 206 0
DWIDTH 3 0
BBX 2 5 1 5
BITMAP
C0
C0
C0
C0
C0
ENDCHAR
STARTCHAR ordmasculine
ENCODING 186
SWIDTH 445 0
DWIDTH 6 0
BBX 6 6 0 3
BITMAP
18
38
7C
EC
FC
78
ENDCHAR
STARTCHAR guillemotright
ENCODING 187
SWIDTH 595 0
DWIDTH 8 0
BBX 8 6 0 0
BITMAP
C8
6E
36
77
EC
98
ENDCHAR
STARTCHAR onequarter
ENCODING 188
SWIDTH 705 0
DWIDTH 10 0
BBX 9 10 0 0
BITMAP
6300
6300
6600
6C00
5900
3D80
7780
6780
C300
C300
ENDCHAR
STARTCHAR onehalf
ENCODING 189
SWIDTH 750 0
DWIDTH 11 0
BBX 10 10 0 0
BITMAP
6300
6300
6600
6C00
5800
3F00
7780
6300
C7C0
C780
ENDCHAR
STARTCHAR threequarters
ENCODING 190
SWIDTH 818 0
DWIDTH 11 0
BBX 10 10 1 0
BITMAP
F080
F180
7300
F600
EC80
1A80
37C0
67C0
C300
C300
ENDCHAR
STARTCHAR questiondown
ENCODING 191
SWIDTH 556 0
DWIDTH 8 0
BBX 8 10 -1 0
BITMAP
03
03
00
06
0E
3C
78
E0
FF
FE
ENDCHAR
STARTCHAR Agrave
ENCODING 192
SWIDTH 702 0
DWIDTH 10 0
BBX 10 14 0 0
BITMAP
0C00
0E00
0300
0100
0600
0E00
1E00
3F00
3300
73C0
7F80
FF80
C780
C300
ENDCHAR
STARTCHAR Aacute
ENCODING 193
SWIDTH 702 0
DWIDTH 10 0
BBX 10 15 0 0
BITMAP
0300
0700
0E00
0C00
0000
0600
0E00
1E00
3F00
3300
73C0
7F80
FF80
C780
C300
ENDCHAR
STARTCHAR Acircumflex
ENCODING 194
SWIDTH 702 0
DWIDTH 10 0
BBX 10 14 0 0
BITMAP
0600
0F00
1D80
0880
0600
0E00
1E00
3F00
3300
73C0
7F80
FF80
C780
C300
ENDCHAR
STARTCHAR Atilde
ENCODING 195
SWIDTH 702 0
DWIDTH 10 0
BBX 10 13 0 0
BITMAP
0FC0
1B80
0000
0600
0E00
1E00
3F00
3300
73C0
7F80
FF80
C780
C300
ENDCHAR
STARTCHAR Adieresis
ENCODING 196
SWIDTH 702 0
DWIDTH 10 0
BBX 10 13 0 0
BITMAP
1D80
1980
0000
0600
0E00
1E00
3F00
3300
73C0
7F80
FF80
C780
C300
ENDCHAR
STARTCHAR Aring
ENCODING 197
SWIDTH 702 0
DWIDTH 10 0
BBX 10 14 0 0
BITMAP
0100
0300
0700
0F80
0700
0E00
1E00
3F00
3300
73C0
7F80
FF80
C780
C300
ENDCHAR
STARTCHAR AE
ENCODING 198
SWIDTH 1153 0
DWIDTH 16 0
BBX 18 10 -1 0
BITMAP
018F80
07BFC0
0FFE00
1FB000
19BF00
39FE00
7FE000
6FE300
E3FF80
C3FF00
ENDCHAR
STARTCHAR Ccedilla
ENCODING 199
SWIDTH 611 0
DWIDTH 9 0
BBX 8 14 0 -4
BITMAP
07
0F
3F
78
F0
E0
C0
F0
7F
3E
30
38
0C
7C
ENDCHAR
STARTCHAR Egrave
ENCODING 200
SWIDTH 626 0
DWIDTH 9 0
BBX 9 15 0 0
BITMAP
0C00
1E00
0700
0200
0000
0F80
7F80
7C00
7000
7F00
7E00
E000
C300
FF00
7E00
ENDCHAR
STARTCHAR Eacute
ENCODING 201
SWIDTH 626 0
DWIDTH 9 0
BBX 9 14 0 0
BITMAP
0300
0700
0E00
0800
0F80
7F80
7C00
7000
7F00
7E00
E000
C300
FF00
7E00
ENDCHAR
STARTCHAR Ecircumflex
ENCODING 202
SWIDTH 626 0
DWIDTH 9 0
BBX 9 15 0 0
BITMAP
0400
0F00
1B80
1100
0000
0F80
7F80
7C00
7000
7F00
7E00
E000
C300
FF00
7E00
ENDCHAR
STARTCHAR Edieresis
ENCODING 203
SWIDTH 626 0
DWIDTH 9 0
BBX 9 13 0 0
BITMAP
1980
1980
0000
0F80
7F80
7C00
7000
7F00
7E00
E000
C300
FF00
7E00
ENDCHAR
STARTCHAR Igrave
ENCODING 204
SWIDTH 515 0
DWIDTH 7 0
BBX 10 15 -1 0
BITMAP
0C00
0E00
0700
0100
0000
3FC0
1FC0
0600
0600
0C00
0C00
0C00
1800
FE00
7E00
ENDCHAR
STARTCHAR Iacute
ENCODING 205
SWIDTH 515 0
DWIDTH 7 0
BBX 10 15 -1 0
BITMAP
00C0
01C0
0300
0200
0000
3FC0
1FC0
0600
0600
0C00
0C00
0C00
1800
FE00
7E00
ENDCHAR
STARTCHAR Icircumflex
ENCODING 206
SWIDTH 515 0
DWIDTH 7 0
BBX 10 15 -1 0
BITMAP
0300
0780
0DC0
0880
0000
3FC0
1FC0
0600
0600
0C00
0C00
0C00
1800
FE00
7E00
ENDCHAR
STARTCHAR Idieresis
ENCODING 207
SWIDTH 515 0
DWIDTH 7 0
BBX 10 13 -1 0
BITMAP
0EC0
0CC0
0000
3FC0
1FC0
0600
0600
0C00
0C00
0C00
1800
FE00
7E00
ENDCHAR
STARTCHAR Eth
ENCODING 208
SWIDTH 656 0
DWIDTH 9 0
BBX 9 10 0 0
BITMAP
3000
3C00
2E00
3300
F980
F980
3780
7F00
7C00
7000
ENDCHAR
STARTCHAR Ntilde
ENCODING 209
SWIDTH 684 0
DWIDTH 10 0
BBX 11 13 0 0
BITMAP
0FE0
0FC0
0000
1880
19C0
3DC0
3980
7980
7B80
FF80
EF00
CF00
4600
ENDCHAR
STARTCHAR Ograve
ENCODING 210
SWIDTH 744 0
DWIDTH 10 0
BBX 10 14 0 0
BITMAP
0600
0700
0180
0080
0700
0F00
1F00
3D80
7180
60C0
E1C0
C7C0
FF80
7E00
ENDCHAR
STARTCHAR Oacute
ENCODING 211
SWIDTH 744 0
DWIDTH 10 0
BBX 10 14 0 0
BITMAP
0300
0700
0E00
0C00
0700
0F00
1F00
3D80
7180
60C0
E1C0
C7C0
FF80
7E00
ENDCHAR
STARTCHAR Ocircumflex
ENCODING 212
SWIDTH 744 0
DWIDTH 10 0
BBX 10 15 0 0
BITMAP
0300
0780
0DC0
0880
0000
0700
0F00
1F00
3D80
7180
60C0
E1C0
C7C0
FF80
7E00
ENDCHAR
STARTCHAR Otilde
ENCODING 213
SWIDTH 744 0
DWIDTH 10 0
BBX 11 13 0 0
BITMAP
0FE0
0FC0
0000
0700
0F00
1F00
3D80
7180
60C0
E1C0
C7C0
FF80
7E00
ENDCHAR
STARTCHAR Odieresis
ENCODING 214
SWIDTH 744 0
DWIDTH 10 0
BBX 10 13 0 0
BITMAP
0CC0
0CC0
0000
0700
0F00
1F00
3D80
7180
60C0
E1C0
C7C0
FF80
7E00
ENDCHAR
STARTCHAR multiply
ENCODING 215
SWIDTH 490 0
DWIDTH 7 0
BBX 7 7 0 0
BITMAP
66
6E
38
70
F8
CC
88
ENDCHAR
STARTCHAR Oslash
ENCODING 216
SWIDTH 744 0
DWIDTH 10 0
BBX 10 12 0 -2
BITMAP
07C0
0FC0
1F80
3B80
7780
6EC0
FDC0
DFC0
FF80
7E00
7000
2000
ENDCHAR
STARTCHAR Ugrave
ENCODING 217
SWIDTH 695 0
DWIDTH 10 0
BBX 9 14 1 0
BITMAP
3000
3800
1C00
0400
0100
8180
C180
C380
C380
C700
CF00
FE00
FC00
7000
ENDCHAR
STARTCHAR Uacute
ENCODING 218
SWIDTH 695 0
DWIDTH 10 0
BBX 9 14 1 0
BITMAP
0300
0700
0C00
0800
0100
8180
C180
C380
C380
C700
CF00
FE00
FC00
7000
ENDCHAR
STARTCHAR Ucircumflex
ENCODING 219
SWIDTH 695 0
DWIDTH 10 0
BBX 9 15 1 0
BITMAP
0C00
1E00
3700
2200
0000
0100
8180
C180
C380
C380
C700
CF00
FE00
FC00
7000
ENDCHAR
STARTCHAR Udieresis
ENCODING 220
SWIDTH 695 0
DWIDTH 10 0
BBX 9 13 1 0
BITMAP
3300
3300
0000
0100
8180
C180
C380
C380
C700
CF00
FE00
FC00
7000
ENDCHAR
STARTCHAR Yacute
ENCODING 221
SWIDTH 493 0
DWIDTH 7 0
BBX 7 15 1 0
BITMAP
06
0E
1C
10
00
C6
CE
DC
F8
78
70
70
E0
C0
C0
ENDCHAR
STARTCHAR Thorn
ENCODING 222
SWIDTH 680 0
DWIDTH 10 0
BBX 10 10 0 0
BITMAP
2000
7000
7F00
7F80
61C0
6780
FF00
FC00
6000
6000
ENDCHAR
STARTCHAR germandbls
ENCODING 223
SWIDTH 931 0
DWIDTH 13 0
BBX 15 8 0 0
BITMAP
3F7C
FFFE
F1E0
79F0
0C10
0C30
79F0
71C0
ENDCHAR
STARTCHAR agrave
ENCODING 224
SWIDTH 581 0
DWIDTH 8 0
BBX 8 13 0 0
BITMAP
18
1C
06
02
00
0C
3C
3C
76
7F
DE
CE
C6
ENDCHAR
STARTCHAR aacute
ENCODING 225
SWIDTH 581 0
DWIDTH 8 0
BBX 8 13 0 0
BITMAP
06
0E
1C
10
00
0C
3C
3C
76
7F
DE
CE
C6
ENDCHAR
STARTCHAR acircumflex
ENCODING 226
SWIDTH 581 0
DWIDTH 8 0
BBX 8 13 0 0
BITMAP
0C
1E
33
12
00
0C
3C
3C
76
7F
DE
CE
C6
ENDCHAR
STARTCHAR atilde
ENCODING 227
SWIDTH 581 0
DWIDTH 8 0
BBX 9 11 0 0
BITMAP
1D80
3700
0000
0C00
3C00
3C00
7600
7F00
DE00
CE00
C600
ENDCHAR
STARTCHAR adieresis
ENCODING 228
SWIDTH 581 0
DWIDTH 8 0
BBX 8 12 0 0
BITMAP
1B
33
00
00
0C
3C
3C
76
7F
DE
CE
C6
ENDCHAR
STARTCHAR aring
ENCODING 229
SWIDTH 581 0
DWIDTH 8 0
BBX 8 12 0 0
BITMAP
02
06
0E
1E
0C
3C
3C
76
7F
DE
CE
C6
ENDCHAR
STARTCHAR ae
ENCODING 230
SWIDTH 948 0
DWIDTH 13 0
BBX 15 8 -1 0
BITMAP
067E
1EFC
1EC0
36F8
3FF8
7F80
C3FC
C6F8
ENDCHAR
STARTCHAR ccedilla
ENCODING 231
SWIDTH 513 0
DWIDTH 7 0
BBX 7 12 0 -4
BITMAP
0E
3E
78
E0
C0
C0
7C
3E
20
38
08
78
ENDCHAR
STARTCHAR egrave
ENCODING 232
SWIDTH 521 0
DWIDTH 7 0
BBX 8 13 0 0
BITMAP
30
38
1C
0C
00
3F
7E
60
7C
7C
C0
FE
7C
ENDCHAR
STARTCHAR eacute
ENCODING 233
SWIDTH 521 0
DWIDTH 7 0
BBX 8 13 0 0
BITMAP
06
0E
1C
10
00
3F
7E
60
7C
7C
C0
FE
7C
ENDCHAR
STARTCHAR ecircumflex
ENCODING 234
SWIDTH 521 0
DWIDTH 7 0
BBX 8 13 0 0
BITMAP
0C
1E
3B
11
00
3F
7E
60
7C
7C
C0
FE
7C
ENDCHAR
STARTCHAR edieresis
ENCODING 235
SWIDTH 521 0
DWIDTH 7 0
BBX 8 12 0 0
BITMAP
1B
33
00
00
3F
7E
60
7C
7C
C0
FE
7C
ENDCHAR
STARTCHAR igrave
ENCODING 236
SWIDTH 320 0
DWIDTH 4 0
BBX 4 13 1 0
BITMAP
C0
E0
30
10
00
40
60
E0
C0
C0
C0
C0
C0
ENDCHAR
STARTCHAR iacute
ENCODING 237
SWIDTH 320 0
DWIDTH 4 0
BBX 6 13 1 0
BITMAP
0C
1C
38
30
00
40
60
E0
C0
C0
C0
C0
C0
ENDCHAR
STARTCHAR icircumflex
ENCODING 238
SWIDTH 320 0
DWIDTH 4 0
BBX 5 13 1 0
BITMAP
20
70
D8
88
00
40
60
E0
C0
C0
C0
C0
C0
ENDCHAR
STARTCHAR idieresis
ENCODING 239
SWIDTH 320 0
DWIDTH 4 0
BBX 7 12 0 0
BITMAP
6E
EC
00
00
20
30
70
60
60
60
60
60
ENDCHAR
STARTCHAR eth
ENCODING 240
SWIDTH 541 0
DWIDTH 8 0
BBX 7 8 0 0
BITMAP
70
7C
66
F2
E6
7E
78
60
ENDCHAR
STARTCHAR ntilde
ENCODING 241
SWIDTH 564 0
DWIDTH 8 0
BBX 10 12 0 0
BITMAP
0EC0
1B80
0000
0000
3300
3B00
7300
7300
F600
FE00
DE00
CC00
ENDCHAR
STARTCHAR ograve
ENCODING 242
SWIDTH 628 0
DWIDTH 9 0
BBX 8 13 0 0
BITMAP
0C
0E
07
03
04
0E
1E
3E
63
E3
C3
FF
7C
ENDCHAR
STARTCHAR oacute
ENCODING 243
SWIDTH 628 0
DWIDTH 9 0
BBX 8 13 0 0
BITMAP
06
0E
1C
08
04
0E
1E
3E
63
E3
C3
FF
7C
ENDCHAR
STARTCHAR ocircumflex
ENCODING 244
SWIDTH 628 0
DWIDTH 9 0
BBX 9 13 0 0
BITMAP
0600
0F00
1B80
1100
0400
0E00
1E00
3E00
6300
E300
C300
FF00
7C00
ENDCHAR
STARTCHAR otilde
ENCODING 245
SWIDTH 628 0
DWIDTH 9 0
BBX 10 11 0 0
BITMAP
0EC0
1B80
0400
0E00
1E00
3E00
6300
E300
C300
FF00
7C00
ENDCHAR
STARTCHAR odieresis
ENCODING 246
SWIDTH 628 0
DWIDTH 9 0
BBX 9 12 0 0
BITMAP
1D80
1980
0000
0400
0E00
1E00
3E00
6300
E300
C300
FF00
7C00
ENDCHAR
STARTCHAR divide
ENCODING 247
SWIDTH 559 0
DWIDTH 8 0
BBX 7 8 0 0
BITMAP
18
1C
00
FE
FE
00
30
30
ENDCHAR
STARTCHAR oslash
ENCODING 248
SWIDTH 632 0
DWIDTH 9 0
BBX 8 11 0 -2
BITMAP
05
0F
1F
3E
7F
EF
DB
FF
7C
60
20
ENDCHAR
STARTCHAR ugrave
ENCODING 249
SWIDTH 584 0
DWIDTH 8 0
BBX 8 13 1 0
BITMAP
30
38
1C
08
00
02
C3
C6
C6
CE
FC
F8
70
ENDCHAR
STARTCHAR uacute
ENCODING 250
SWIDTH 584 0
DWIDTH 8 0
BBX 8 12 1 0
BITMAP
06
0E
1C
10
02
C3
C6
C6
CE
FC
F8
70
ENDCHAR
STARTCHAR ucircumflex
ENCODING 251
SWIDTH 584 0
DWIDTH 8 0
BBX 8 13 1 0
BITMAP
08
3C
76
22
00
02
C3
C6
C6
CE
FC
F8
70
ENDCHAR
STARTCHAR udieresis
ENCODING 252
SWIDTH 584 0
DWIDTH 8 0
BBX 8 12 1 0
BITMAP
36
66
00
00
02
C3
C6
C6
CE
FC
F8
70
ENDCHAR
STARTCHAR yacute
ENCODING 253
SWIDTH 400 0
DWIDTH 6 0
BBX 7 13 1 0
BITMAP
0C
1E
18
10
04
CC
D8
F8
F0
60
E0
C0
C0
ENDCHAR
STARTCHAR thorn
ENCODING 254
SWIDTH 579 0
DWIDTH 8 0
BBX 8 9 0 0
BITMAP
20
60
7E
7F
67
EE
FC
60
40
ENDCHAR
STARTCHAR ydieresis
ENCODING 255
SWIDTH 400 0
DWIDTH 6 0
BBX 7 12 1 0
BITMAP
66
66
00
04
CC
D8
F8
F0
60
E0
C0
C0
ENDCHAR
STARTCHAR dotlessi
ENCODING 305
SWIDTH 320 0
DWIDTH 4 0
BBX 3 8 1 0
BITMAP
40
60
E0
C0
C0
C0
C0
C0
ENDCHAR
STARTCHAR Lslash
ENCODING 321
SWIDTH 632 0
DWIDTH 9 0
BBX 10 10 -1 0
BITMAP
1800
1C00
1800
3E00
FC00
F000
7000
7F00
7F80
3FC0
ENDCHAR
STARTCHAR lslash
ENCODING 322
SWIDTH 533 0
DWIDTH 7 0
BBX 8 8 -1 0
BITMAP
18
18
38
7C
F0
60
7F
3F
ENDCHAR
STARTCHAR OE
ENCODING 338
SWIDTH 1212 0
DWIDTH 17 0
BBX 17 10 0 0
BITMAP
070F80
0F7F80
1F7C00
3DB000
71BF00
60FE00
E1E000
C7E300
FFFF80
7E7E00
ENDCHAR
STARTCHAR oe
ENCODING 339
SWIDTH 1010 0
DWIDTH 14 0
BBX 15 9 0 0
BITMAP
0400
0E7E
1EFC
3EC0
63F8
E3F0
C380
FFFC
7DF8
ENDCHAR
STARTCHAR Scaron
ENCODING 352
SWIDTH 576 0
DWIDTH 8 0
BBX 10 15 0 0
BITMAP
1100
1B80
0F00
0600
0000
0F80
7FC0
F800
F800
7C00
0600
0600
1E00
7C00
7000
ENDCHAR
STARTCHAR scaron
ENCODING 353
SWIDTH 463 0
DWIDTH 7 0
BBX 8 14 0 0
BITMAP
22
36
1C
08
00
00
3F
FF
F0
78
0C
0C
78
70
ENDCHAR
STARTCHAR Ydieresis
ENCODING 376
SWIDTH 493 0
DWIDTH 7 0
BBX 7 14 1 0
BITMAP
36
66
00
00
C6
CE
DC
F8
78
70
70
E0
C0
C0
ENDCHAR
STARTCHAR Zcaron
ENCODING 381
SWIDTH 664 0
DWIDTH 9 0
BBX 10 16 0 -1
BITMAP
0440
0EC0
0780
0300
0000
3F80
3FC0
0380
0700
1E00
3C00
F000
E780
FF80
FE00
2000
ENDCHAR
STARTCHAR zcaron
ENCODING 382
SWIDTH 547 0
DWIDTH 8 0
BBX 9 15 0 -1
BITMAP
1100
1B80
0F00
0600
0000
0000
3F00
3F00
0E00
3C00
7800
E200
FE00
FC00
4000
ENDCHAR
STARTCHAR circumflex
ENCODING 710
SWIDTH 754 0
DWIDTH 11 0
BBX 6 4 3 7
BITMAP
30
78
EC
44
ENDCHAR
STARTCHAR caron
ENCODING 711
SWIDTH 754 0
DWIDTH 11 0
BBX 6 4 3 7
BITMAP
44
EC
78
30
ENDCHAR
STARTCHAR breve
ENCODING 728
SWIDTH 754 0
DWIDTH 11 0
BBX 6 3 3 8
BITMAP
44
FC
78
ENDCHAR
STARTCHAR dotaccent
ENCODING 729
SWIDTH 754 0
DWIDTH 11 0
BBX 2 2 5 8
BITMAP
C0
C0
ENDCHAR
STARTCHAR ring
ENCODING 730
SWIDTH 754 0
DWIDTH 11 0
BBX 4 4 4 7
BITMAP
30
70
F0
E0
ENDCHAR
STARTCHAR ogonek
ENCODING 731
SWIDTH 754 0
DWIDTH 11 0
BBX 5 5 4 -4
BITMAP
40
C0
C0
78
38
ENDCHAR
STARTCHAR tilde
ENCODING 732
SWIDTH 754 0
DWIDTH 11 0
BBX 7 2 3 8
BITMAP
FE
FC
ENDCHAR
STARTCHAR hungarumlaut
ENCODING 733
SWIDTH 754 0
DWIDTH 11 0
BBX 8 4 2 6
BITMAP
33
77
EE
C8
ENDCHAR
STARTCHAR endash
ENCODING 8211
SWIDTH 588 0
DWIDTH 8 0
BBX 7 2 0 3
BITMAP
7E
FE
ENDCHAR
STARTCHAR emdash
ENCODING 8212
SWIDTH 878 0
DWIDTH 12 0
BBX 11 2 0 3
BITMAP
FFC0
FFE0
ENDCHAR
STARTCHAR quoteleft
ENCODING 8216
SWIDTH 203 0
DWIDTH 3 0
BBX 3 5 1 6
BITMAP
40
60
E0
C0
40
ENDCHAR
STARTCHAR quoteright
ENCODING 8217
SWIDTH 199 0
DWIDTH 3 0
BBX 3 5 1 6
BITMAP
40
60
60
E0
40
ENDCHAR
STARTCHAR quotesinglbase
ENCODING 8218
SWIDTH 204 0
DWIDTH 3 0
BBX 4 4 -2 -2
BITMAP
20
70
60
E0
ENDCHAR
STARTCHAR quotedblleft
ENCODING 8220
SWIDTH 410 0
DWIDTH 6 0
BBX 6 5 1 6
BITMAP
48
6C
FC
D8
C8
ENDCHAR
STARTCHAR quotedblright
ENCODING 8221
SWIDTH 425 0
DWIDTH 6 0
BBX 6 5 1 6
BITMAP
44
6C
6C
FC
58
ENDCHAR
STARTCHAR quotedblbase
ENCODING 8222
SWIDTH 430 0
DWIDTH 6 0
BBX 7 4 -2 -2
BITMAP
26
76
6C
FC
ENDCHAR
STARTCHAR bullet
ENCODING 8226
SWIDTH 299 0
DWIDTH 4 0
BBX 4 3 0 3
BITMAP
60
F0
60
ENDCHAR
STARTCHAR ellipsis
ENCODING 8230
SWIDTH 768 0
DWIDTH 11 0
BBX 10 2 0 0
BITMAP
CDC0
DD80
ENDCHAR
STARTCHAR perthousand
ENCODING 8240
SWIDTH 889 0
DWIDTH 12 0
BBX 12 10 1 0
BITMAP
2100
6300
B600
FC00
1800
3420
6E60
DEE0
DFF0
8CC0
ENDCHAR
STARTCHAR guilsinglleft
ENCODING 8249
SWIDTH 322 0
DWIDTH 5 0
BBX 4 6 0 0
BITMAP
10
30
E0
C0
60
20
ENDCHAR
STARTCHAR guilsinglright
ENCODING 8250
SWIDTH 341 0
DWIDTH 5 0
BBX 4 6 0 0
BITMAP
C0
60
30
70
E0
80
ENDCHAR
STARTCHAR fraction
ENCODING 8260
SWIDTH 541 0
DWIDTH 8 0
BBX 7 10 0 0
BITMAP
02
06
06
0C
18
30
60
E0
C0
C0
ENDCHAR
STARTCHAR Euro
ENCODING 8364
SWIDTH 565 0
DWIDTH 8 0
BBX 7 8 0 0
BITMAP
0E
1E
38
78
FE
60
3E
1E
ENDCHAR
STARTCHAR Delta
ENCODING 8710
SWIDTH 403 0
DWIDTH 6 0
BBX 8 8 -1 0
BITMAP
3F
1C
0C
08
18
18
FC
7C
ENDCHAR
STARTCHAR minus
ENCODING 8722
SWIDTH 548 0
DWIDTH 8 0
BBX 7 2 0 3
BITMAP
7C
FE
ENDCHAR
STARTCHAR approxequal
ENCODING 8776
SWIDTH 323 0
DWIDTH 5 0
BBX 4 10 0 0
BITMAP
20
30
70
70
60
60
60
E0
60
60
ENDCHAR
STARTCHAR fi
ENCODING 64257
SWIDTH 810 0
DWIDTH 11 0
BBX 11 8 0 0
BITMAP
3F40
78E0
70C0
60C0
FCC0
F0C0
C0C0
C0C0
ENDCHAR
STARTCHAR fl
ENCODING 64258
SWIDTH 1012 0
DWIDTH 14 0
BBX 14 8 0 0
BITMAP
3F60
78E0
70C0
60C0
FD80
F180
C1FC
C1FC
ENDCHAR
STARTCHAR .notdef
ENCODING -1
SWIDTH 370 0
DWIDTH 5 0
BBX 1 1 0 0
BITMAP
00
ENDCHAR
ENDFONT
